<svg xmlns="http://www.w3.org/2000/svg" xmlns:xlink="http://www.w3.org/1999/xlink" contentStyleType="text/css" data-diagram-type="ACTIVITY" height="1943px" preserveAspectRatio="none" style="width:2681px;height:1943px;background:#FFFFFF;" version="1.1" viewBox="0 0 2681 1943" width="2681px" zoomAndPan="magnify"><defs/><g><rect fill="#FFFFFF" fill-opacity="0.00000" height="20.9531" style="stroke:#FFFFFF00;stroke-width:1;" width="2648.3291" x="15" y="12.7451"/><rect fill="#F1F1F1" height="33.9688" rx="12.5" ry="12.5" style="stroke:#181818;stroke-width:0.5;" width="469.0215" x="21" y="402.5107"/><text fill="#000000" font-family="sans-serif" font-size="12" lengthAdjust="spacing" textLength="449.0215" x="31" y="423.6494">NotificationPreferences(frequency: NotificationFrequency, isEnabled: bool)</text><line style="stroke:#000000;stroke-width:1.5;" x1="15" x2="15" y1="12.7451" y2="1931.1045"/><rect fill="#F1F1F1" height="33.9688" rx="12.5" ry="12.5" style="stroke:#181818;stroke-width:0.5;" width="574.4902" x="500.0215" y="510.4482"/><text fill="#000000" font-family="sans-serif" font-size="12" lengthAdjust="spacing" textLength="554.4902" x="510.0215" y="531.5869">UserProfile(username: string, email: string, notificationPreferences: NotificationPreferences)</text><line style="stroke:#000000;stroke-width:1.5;" x1="494.0215" x2="494.0215" y1="12.7451" y2="1931.1045"/><ellipse cx="1398.7983" cy="48.6982" fill="#222222" rx="10" ry="10" style="stroke:#222222;stroke-width:1;"/><rect fill="#F1F1F1" height="33.9688" rx="12.5" ry="12.5" style="stroke:#181818;stroke-width:0.5;" width="214.8535" x="1291.3716" y="78.6982"/><text fill="#000000" font-family="sans-serif" font-size="12" lengthAdjust="spacing" textLength="194.8535" x="1301.3716" y="99.8369">Receive registration button click</text><rect fill="#F1F1F1" height="33.9688" rx="12.5" ry="12.5" style="stroke:#181818;stroke-width:0.5;" width="166.6133" x="1315.4917" y="132.667"/><text fill="#000000" font-family="sans-serif" font-size="12" lengthAdjust="spacing" textLength="146.6133" x="1325.4917" y="153.8057">readUsernameTextbox()</text><rect fill="#F1F1F1" height="33.9688" rx="12.5" ry="12.5" style="stroke:#181818;stroke-width:0.5;" width="162.0313" x="1317.7827" y="186.6357"/><text fill="#000000" font-family="sans-serif" font-size="12" lengthAdjust="spacing" textLength="142.0313" x="1327.7827" y="207.7744">readPasswordTextbox()</text><rect fill="#F1F1F1" height="33.9688" rx="12.5" ry="12.5" style="stroke:#181818;stroke-width:0.5;" width="138.5234" x="1329.5366" y="240.6045"/><text fill="#000000" font-family="sans-serif" font-size="12" lengthAdjust="spacing" textLength="118.5234" x="1339.5366" y="261.7432">readEmailTextbox()</text><rect fill="#F1F1F1" height="33.9688" rx="12.5" ry="12.5" style="stroke:#181818;stroke-width:0.5;" width="196.8184" x="1300.3892" y="294.5732"/><text fill="#000000" font-family="sans-serif" font-size="12" lengthAdjust="spacing" textLength="176.8184" x="1310.3892" y="315.7119">readNotificationPreferences()</text><rect fill="#F1F1F1" height="33.9688" rx="12.5" ry="12.5" style="stroke:#181818;stroke-width:0.5;" width="244.9121" x="1276.3423" y="348.542"/><text fill="#000000" font-family="sans-serif" font-size="12" lengthAdjust="spacing" textLength="224.9121" x="1286.3423" y="369.6807">Create NotificationPreferences object</text><rect fill="#F1F1F1" height="33.9688" rx="12.5" ry="12.5" style="stroke:#181818;stroke-width:0.5;" width="169.8828" x="1313.8569" y="456.4795"/><text fill="#000000" font-family="sans-serif" font-size="12" lengthAdjust="spacing" textLength="149.8828" x="1323.8569" y="477.6182">Create UserProfile object</text><rect fill="#F1F1F1" height="33.9688" rx="12.5" ry="12.5" style="stroke:#181818;stroke-width:0.5;" width="347.3281" x="1225.1343" y="564.417"/><text fill="#000000" font-family="sans-serif" font-size="12" lengthAdjust="spacing" textLength="327.3281" x="1235.1343" y="585.5557">registerUser(userProfile: UserProfile, password: string)</text><rect fill="#F1F1F1" height="33.9688" rx="12.5" ry="12.5" style="stroke:#181818;stroke-width:0.5;" width="304.9473" x="1246.3247" y="720.7568"/><text fill="#000000" font-family="sans-serif" font-size="12" lengthAdjust="spacing" textLength="284.9473" x="1256.3247" y="741.8955">displayError("Username must use only letters")</text><ellipse cx="1398.7983" cy="794.2412" fill="#FFFFFF" fill-opacity="0.00000" rx="11" ry="11" style="stroke:#222222;stroke-width:1;"/><ellipse cx="1398.7983" cy="794.2412" fill="#222222" rx="6" ry="6" style="stroke:#222222;stroke-width:1;"/><rect fill="#F1F1F1" height="33.9688" rx="12.5" ry="12.5" style="stroke:#181818;stroke-width:0.5;" width="379.8242" x="1208.8862" y="949.6123"/><text fill="#000000" font-family="sans-serif" font-size="12" lengthAdjust="spacing" textLength="359.8242" x="1218.8862" y="970.751">displayError("Password must be at least 8 characters long")</text><ellipse cx="1398.7983" cy="1023.0967" fill="#FFFFFF" fill-opacity="0.00000" rx="11" ry="11" style="stroke:#222222;stroke-width:1;"/><ellipse cx="1398.7983" cy="1023.0967" fill="#222222" rx="6" ry="6" style="stroke:#222222;stroke-width:1;"/><rect fill="#F1F1F1" height="33.9688" rx="12.5" ry="12.5" style="stroke:#181818;stroke-width:0.5;" width="240.752" x="1278.4224" y="1286.4053"/><text fill="#000000" font-family="sans-serif" font-size="12" lengthAdjust="spacing" textLength="220.752" x="1288.4224" y="1307.5439">displayError("Invalid email address")</text><ellipse cx="1398.7983" cy="1359.8896" fill="#FFFFFF" fill-opacity="0.00000" rx="11" ry="11" style="stroke:#222222;stroke-width:1;"/><ellipse cx="1398.7983" cy="1359.8896" fill="#222222" rx="6" ry="6" style="stroke:#222222;stroke-width:1;"/><rect fill="#F1F1F1" height="33.9688" rx="12.5" ry="12.5" style="stroke:#181818;stroke-width:0.5;" width="261.8516" x="1267.8726" y="1569.2295"/><text fill="#000000" font-family="sans-serif" font-size="12" lengthAdjust="spacing" textLength="241.8516" x="1277.8726" y="1590.3682">displayError("Username already exists")</text><ellipse cx="1398.7983" cy="1634.1982" fill="#FFFFFF" fill-opacity="0.00000" rx="11" ry="11" style="stroke:#222222;stroke-width:1;"/><ellipse cx="1398.7983" cy="1634.1982" fill="#222222" rx="6" ry="6" style="stroke:#222222;stroke-width:1;"/><rect fill="#F1F1F1" height="33.9688" rx="12.5" ry="12.5" style="stroke:#181818;stroke-width:0.5;" width="302.3398" x="1084.5117" y="1839.1357"/><text fill="#000000" font-family="sans-serif" font-size="12" lengthAdjust="spacing" textLength="282.3398" x="1094.5117" y="1860.2744">transitionToHomeView(userProfile: UserProfile)</text><ellipse cx="1235.6816" cy="1904.1045" fill="#FFFFFF" fill-opacity="0.00000" rx="11" ry="11" style="stroke:#222222;stroke-width:1;"/><ellipse cx="1235.6816" cy="1904.1045" fill="#222222" rx="6" ry="6" style="stroke:#222222;stroke-width:1;"/><rect fill="#F1F1F1" height="33.9688" rx="12.5" ry="12.5" style="stroke:#181818;stroke-width:0.5;" width="292.2734" x="1415.7783" y="1785.167"/><text fill="#000000" font-family="sans-serif" font-size="12" lengthAdjust="spacing" textLength="272.2734" x="1425.7783" y="1806.3057">Return RegistrationStatus.UNKNOWN_ERROR</text><rect fill="#F1F1F1" height="33.9688" rx="12.5" ry="12.5" style="stroke:#181818;stroke-width:0.5;" width="310.127" x="1406.8516" y="1839.1357"/><text fill="#000000" font-family="sans-serif" font-size="12" lengthAdjust="spacing" textLength="290.127" x="1416.8516" y="1860.2744">displayError("Registration failed. Internal error")</text><ellipse cx="1561.915" cy="1904.1045" fill="#FFFFFF" fill-opacity="0.00000" rx="11" ry="11" style="stroke:#222222;stroke-width:1;"/><ellipse cx="1561.915" cy="1904.1045" fill="#222222" rx="6" ry="6" style="stroke:#222222;stroke-width:1;"/><line style="stroke:#000000;stroke-width:1.5;" x1="1078.5117" x2="1078.5117" y1="12.7451" y2="1931.1045"/><rect fill="#F1F1F1" height="33.9688" rx="12.5" ry="12.5" style="stroke:#181818;stroke-width:0.5;" width="241.4375" x="1887.0337" y="618.3857"/><text fill="#000000" font-family="sans-serif" font-size="12" lengthAdjust="spacing" textLength="221.4375" x="1897.0337" y="639.5244">validateUsername(username: string)</text><polygon fill="#F1F1F1" points="2007.7524,672.3545,2007.7524,672.3545,2019.7524,684.3545,2007.7524,696.3545,2007.7524,696.3545,1995.7524,684.3545,2007.7524,672.3545" style="stroke:#181818;stroke-width:0.5;"/><text fill="#000000" font-family="sans-serif" font-size="11" lengthAdjust="spacing" textLength="103.6406" x="2011.7524" y="706.5649">[invalid username]</text><text fill="#000000" font-family="sans-serif" font-size="11" lengthAdjust="spacing" textLength="93.6128" x="2019.7524" y="681.7603">[valid username]</text><rect fill="#F1F1F1" height="33.9688" rx="12.5" ry="12.5" style="stroke:#181818;stroke-width:0.5;" width="233.832" x="1890.8364" y="847.2412"/><text fill="#000000" font-family="sans-serif" font-size="12" lengthAdjust="spacing" textLength="213.832" x="1900.8364" y="868.3799">validatePassword(password: string)</text><polygon fill="#F1F1F1" points="2007.7524,901.21,2007.7524,901.21,2019.7524,913.21,2007.7524,925.21,2007.7524,925.21,1995.7524,913.21,2007.7524,901.21" style="stroke:#181818;stroke-width:0.5;"/><text fill="#000000" font-family="sans-serif" font-size="11" lengthAdjust="spacing" textLength="100.8691" x="2011.7524" y="935.4204">[invalid password]</text><text fill="#000000" font-family="sans-serif" font-size="11" lengthAdjust="spacing" textLength="90.8413" x="2019.7524" y="910.6157">[valid password]</text><rect fill="#F1F1F1" height="33.9688" rx="12.5" ry="12.5" style="stroke:#181818;stroke-width:0.5;" width="214.4668" x="1900.519" y="1076.0967"/><text fill="#000000" font-family="sans-serif" font-size="12" lengthAdjust="spacing" textLength="194.4668" x="1910.519" y="1097.2354">hashPassword(password: string)</text><rect fill="#F1F1F1" height="33.9688" rx="12.5" ry="12.5" style="stroke:#181818;stroke-width:0.5;" width="155.0469" x="1930.229" y="1130.0654"/><text fill="#000000" font-family="sans-serif" font-size="12" lengthAdjust="spacing" textLength="135.0469" x="1940.229" y="1151.2041">store hashedPassword</text><rect fill="#F1F1F1" height="33.9688" rx="12.5" ry="12.5" style="stroke:#181818;stroke-width:0.5;" width="186.2363" x="1914.6343" y="1184.0342"/><text fill="#000000" font-family="sans-serif" font-size="12" lengthAdjust="spacing" textLength="166.2363" x="1924.6343" y="1205.1729">validateEmail(email: string)</text><polygon fill="#F1F1F1" points="2007.7524,1238.0029,2007.7524,1238.0029,2019.7524,1250.0029,2007.7524,1262.0029,2007.7524,1262.0029,1995.7524,1250.0029,2007.7524,1238.0029" style="stroke:#181818;stroke-width:0.5;"/><text fill="#000000" font-family="sans-serif" font-size="11" lengthAdjust="spacing" textLength="78.7886" x="2011.7524" y="1272.2134">[invalid email]</text><text fill="#000000" font-family="sans-serif" font-size="11" lengthAdjust="spacing" textLength="68.7607" x="2019.7524" y="1247.4087">[valid email]</text><rect fill="#F1F1F1" height="33.9688" rx="12.5" ry="12.5" style="stroke:#181818;stroke-width:0.5;" width="258.7227" x="1878.3911" y="1412.8896"/><text fill="#000000" font-family="sans-serif" font-size="12" lengthAdjust="spacing" textLength="238.7227" x="1888.3911" y="1434.0283">findUserByUsername(username: string)</text><rect fill="#F1F1F1" height="33.9688" rx="12.5" ry="12.5" style="stroke:#181818;stroke-width:0.5;" width="321.1602" x="1847.1724" y="1515.2607"/><text fill="#000000" font-family="sans-serif" font-size="12" lengthAdjust="spacing" textLength="301.1602" x="1857.1724" y="1536.3994">Return RegistrationStatus.USER_ALREADY_EXISTS</text><polygon fill="#F1F1F1" points="2007.7524,1466.8584,2007.7524,1466.8584,2019.7524,1478.8584,2007.7524,1490.8584,2007.7524,1490.8584,1995.7524,1478.8584,2007.7524,1466.8584" style="stroke:#181818;stroke-width:0.5;"/><text fill="#000000" font-family="sans-serif" font-size="11" lengthAdjust="spacing" textLength="67.6006" x="2011.7524" y="1501.0688">[user found]</text><text fill="#000000" font-family="sans-serif" font-size="11" lengthAdjust="spacing" textLength="89.1118" x="2019.7524" y="1476.2642">[user not found]</text><polygon fill="#F1F1F1" points="2007.7524,1741.167,2007.7524,1741.167,2019.7524,1753.167,2007.7524,1765.167,2007.7524,1765.167,1995.7524,1753.167,2007.7524,1741.167" style="stroke:#181818;stroke-width:0.5;"/><text fill="#000000" font-family="sans-serif" font-size="11" lengthAdjust="spacing" textLength="94.7568" x="1900.9956" y="1750.5728">[save successful]</text><text fill="#000000" font-family="sans-serif" font-size="11" lengthAdjust="spacing" textLength="108.7002" x="2019.7524" y="1750.5728">[save unsuccessful]</text><rect fill="#F1F1F1" height="33.9688" rx="12.5" ry="12.5" style="stroke:#181818;stroke-width:0.5;" width="235.3145" x="1726.9785" y="1785.167"/><text fill="#000000" font-family="sans-serif" font-size="12" lengthAdjust="spacing" textLength="215.3145" x="1736.9785" y="1806.3057">Return RegistrationStatus.SUCCESS</text><line style="stroke:#000000;stroke-width:1.5;" x1="1720.9785" x2="1720.9785" y1="12.7451" y2="1931.1045"/><rect fill="#F1F1F1" height="33.9688" rx="12.5" ry="12.5" style="stroke:#181818;stroke-width:0.5;" width="444.2422" x="2213.2261" y="1687.1982"/><text fill="#000000" font-family="sans-serif" font-size="12" lengthAdjust="spacing" textLength="424.2422" x="2223.2261" y="1708.3369">saveUserToDatabase(userProfile: UserProfile, hashedPassword: string)</text><line style="stroke:#000000;stroke-width:1.5;" x1="2207.2261" x2="2207.2261" y1="12.7451" y2="1931.1045"/><line style="stroke:#000000;stroke-width:1.5;" x1="2661.4683" x2="2661.4683" y1="12.7451" y2="1931.1045"/><line style="stroke:#181818;stroke-width:1;" x1="1398.7983" x2="1398.7983" y1="58.6982" y2="78.6982"/><polygon fill="#181818" points="1394.7983,68.6982,1398.7983,78.6982,1402.7983,68.6982,1398.7983,72.6982" style="stroke:#181818;stroke-width:1;"/><line style="stroke:#181818;stroke-width:1;" x1="1398.7983" x2="1398.7983" y1="112.667" y2="132.667"/><polygon fill="#181818" points="1394.7983,122.667,1398.7983,132.667,1402.7983,122.667,1398.7983,126.667" style="stroke:#181818;stroke-width:1;"/><line style="stroke:#181818;stroke-width:1;" x1="1398.7983" x2="1398.7983" y1="166.6357" y2="186.6357"/><polygon fill="#181818" points="1394.7983,176.6357,1398.7983,186.6357,1402.7983,176.6357,1398.7983,180.6357" style="stroke:#181818;stroke-width:1;"/><line style="stroke:#181818;stroke-width:1;" x1="1398.7983" x2="1398.7983" y1="220.6045" y2="240.6045"/><polygon fill="#181818" points="1394.7983,230.6045,1398.7983,240.6045,1402.7983,230.6045,1398.7983,234.6045" style="stroke:#181818;stroke-width:1;"/><line style="stroke:#181818;stroke-width:1;" x1="1398.7983" x2="1398.7983" y1="274.5732" y2="294.5732"/><polygon fill="#181818" points="1394.7983,284.5732,1398.7983,294.5732,1402.7983,284.5732,1398.7983,288.5732" style="stroke:#181818;stroke-width:1;"/><line style="stroke:#181818;stroke-width:1;" x1="1398.7983" x2="1398.7983" y1="328.542" y2="348.542"/><polygon fill="#181818" points="1394.7983,338.542,1398.7983,348.542,1402.7983,338.542,1398.7983,342.542" style="stroke:#181818;stroke-width:1;"/><line style="stroke:#181818;stroke-width:1;" x1="1398.7983" x2="1398.7983" y1="754.7256" y2="783.2412"/><polygon fill="#181818" points="1394.7983,773.2412,1398.7983,783.2412,1402.7983,773.2412,1398.7983,777.2412" style="stroke:#181818;stroke-width:1;"/><line style="stroke:#181818;stroke-width:1;" x1="1398.7983" x2="1398.7983" y1="983.5811" y2="1012.0967"/><polygon fill="#181818" points="1394.7983,1002.0967,1398.7983,1012.0967,1402.7983,1002.0967,1398.7983,1006.0967" style="stroke:#181818;stroke-width:1;"/><line style="stroke:#181818;stroke-width:1;" x1="1398.7983" x2="1398.7983" y1="1320.374" y2="1348.8896"/><polygon fill="#181818" points="1394.7983,1338.8896,1398.7983,1348.8896,1402.7983,1338.8896,1398.7983,1342.8896" style="stroke:#181818;stroke-width:1;"/><line style="stroke:#181818;stroke-width:1;" x1="1398.7983" x2="1398.7983" y1="1603.1982" y2="1623.1982"/><polygon fill="#181818" points="1394.7983,1613.1982,1398.7983,1623.1982,1402.7983,1613.1982,1398.7983,1617.1982" style="stroke:#181818;stroke-width:1;"/><line style="stroke:#181818;stroke-width:1;" x1="1235.6816" x2="1235.6816" y1="1873.1045" y2="1893.1045"/><polygon fill="#181818" points="1231.6816,1883.1045,1235.6816,1893.1045,1239.6816,1883.1045,1235.6816,1887.1045" style="stroke:#181818;stroke-width:1;"/><line style="stroke:#181818;stroke-width:1;" x1="1561.915" x2="1561.915" y1="1819.1357" y2="1839.1357"/><polygon fill="#181818" points="1557.915,1829.1357,1561.915,1839.1357,1565.915,1829.1357,1561.915,1833.1357" style="stroke:#181818;stroke-width:1;"/><line style="stroke:#181818;stroke-width:1;" x1="1561.915" x2="1561.915" y1="1873.1045" y2="1893.1045"/><polygon fill="#181818" points="1557.915,1883.1045,1561.915,1893.1045,1565.915,1883.1045,1561.915,1887.1045" style="stroke:#181818;stroke-width:1;"/><line style="stroke:#181818;stroke-width:1;" x1="2019.7524" x2="2170.2261" y1="684.3545" y2="684.3545"/><polygon fill="#181818" points="2166.2261,753.2412,2170.2261,763.2412,2174.2261,753.2412,2170.2261,757.2412" style="stroke:#181818;stroke-width:1;"/><line style="stroke:#181818;stroke-width:1;" x1="2170.2261" x2="2170.2261" y1="684.3545" y2="827.2412"/><line style="stroke:#181818;stroke-width:1;" x1="2170.2261" x2="2007.7524" y1="827.2412" y2="827.2412"/><line style="stroke:#181818;stroke-width:1;" x1="2007.7524" x2="2007.7524" y1="827.2412" y2="847.2412"/><polygon fill="#181818" points="2003.7524,837.2412,2007.7524,847.2412,2011.7524,837.2412,2007.7524,841.2412" style="stroke:#181818;stroke-width:1;"/><line style="stroke:#181818;stroke-width:1;" x1="2007.7524" x2="2007.7524" y1="652.3545" y2="672.3545"/><polygon fill="#181818" points="2003.7524,662.3545,2007.7524,672.3545,2011.7524,662.3545,2007.7524,666.3545" style="stroke:#181818;stroke-width:1;"/><line style="stroke:#181818;stroke-width:1;" x1="2019.7524" x2="2188.2261" y1="913.21" y2="913.21"/><polygon fill="#181818" points="2184.2261,982.0967,2188.2261,992.0967,2192.2261,982.0967,2188.2261,986.0967" style="stroke:#181818;stroke-width:1;"/><line style="stroke:#181818;stroke-width:1;" x1="2188.2261" x2="2188.2261" y1="913.21" y2="1056.0967"/><line style="stroke:#181818;stroke-width:1;" x1="2188.2261" x2="2007.7524" y1="1056.0967" y2="1056.0967"/><line style="stroke:#181818;stroke-width:1;" x1="2007.7524" x2="2007.7524" y1="1056.0967" y2="1076.0967"/><polygon fill="#181818" points="2003.7524,1066.0967,2007.7524,1076.0967,2011.7524,1066.0967,2007.7524,1070.0967" style="stroke:#181818;stroke-width:1;"/><line style="stroke:#181818;stroke-width:1;" x1="2007.7524" x2="2007.7524" y1="881.21" y2="901.21"/><polygon fill="#181818" points="2003.7524,891.21,2007.7524,901.21,2011.7524,891.21,2007.7524,895.21" style="stroke:#181818;stroke-width:1;"/><line style="stroke:#181818;stroke-width:1;" x1="2007.7524" x2="2007.7524" y1="1110.0654" y2="1130.0654"/><polygon fill="#181818" points="2003.7524,1120.0654,2007.7524,1130.0654,2011.7524,1120.0654,2007.7524,1124.0654" style="stroke:#181818;stroke-width:1;"/><line style="stroke:#181818;stroke-width:1;" x1="2007.7524" x2="2007.7524" y1="1164.0342" y2="1184.0342"/><polygon fill="#181818" points="2003.7524,1174.0342,2007.7524,1184.0342,2011.7524,1174.0342,2007.7524,1178.0342" style="stroke:#181818;stroke-width:1;"/><line style="stroke:#181818;stroke-width:1;" x1="2019.7524" x2="2138.1284" y1="1250.0029" y2="1250.0029"/><polygon fill="#181818" points="2134.1284,1318.8896,2138.1284,1328.8896,2142.1284,1318.8896,2138.1284,1322.8896" style="stroke:#181818;stroke-width:1;"/><line style="stroke:#181818;stroke-width:1;" x1="2138.1284" x2="2138.1284" y1="1250.0029" y2="1392.8896"/><line style="stroke:#181818;stroke-width:1;" x1="2138.1284" x2="2007.7524" y1="1392.8896" y2="1392.8896"/><line style="stroke:#181818;stroke-width:1;" x1="2007.7524" x2="2007.7524" y1="1392.8896" y2="1412.8896"/><polygon fill="#181818" points="2003.7524,1402.8896,2007.7524,1412.8896,2011.7524,1402.8896,2007.7524,1406.8896" style="stroke:#181818;stroke-width:1;"/><line style="stroke:#181818;stroke-width:1;" x1="2007.7524" x2="2007.7524" y1="1218.0029" y2="1238.0029"/><polygon fill="#181818" points="2003.7524,1228.0029,2007.7524,1238.0029,2011.7524,1228.0029,2007.7524,1232.0029" style="stroke:#181818;stroke-width:1;"/><line style="stroke:#181818;stroke-width:1;" x1="2007.7524" x2="2007.7524" y1="1490.8584" y2="1515.2607"/><polygon fill="#181818" points="2003.7524,1505.2607,2007.7524,1515.2607,2011.7524,1505.2607,2007.7524,1509.2607" style="stroke:#181818;stroke-width:1;"/><line style="stroke:#181818;stroke-width:1;" x1="2019.7524" x2="2435.3472" y1="1478.8584" y2="1478.8584"/><polygon fill="#181818" points="2431.3472,1584.7295,2435.3472,1594.7295,2439.3472,1584.7295,2435.3472,1588.7295" style="stroke:#181818;stroke-width:1;"/><line style="stroke:#181818;stroke-width:1;" x1="2435.3472" x2="2435.3472" y1="1478.8584" y2="1687.1982"/><polygon fill="#181818" points="2431.3472,1677.1982,2435.3472,1687.1982,2439.3472,1677.1982,2435.3472,1681.1982" style="stroke:#181818;stroke-width:1;"/><line style="stroke:#181818;stroke-width:1;" x1="2007.7524" x2="2007.7524" y1="1446.8584" y2="1466.8584"/><polygon fill="#181818" points="2003.7524,1456.8584,2007.7524,1466.8584,2011.7524,1456.8584,2007.7524,1460.8584" style="stroke:#181818;stroke-width:1;"/><line style="stroke:#181818;stroke-width:1;" x1="1995.7524" x2="1844.6357" y1="1753.167" y2="1753.167"/><line style="stroke:#181818;stroke-width:1;" x1="1844.6357" x2="1844.6357" y1="1753.167" y2="1785.167"/><polygon fill="#181818" points="1840.6357,1775.167,1844.6357,1785.167,1848.6357,1775.167,1844.6357,1779.167" style="stroke:#181818;stroke-width:1;"/><line style="stroke:#181818;stroke-width:1;" x1="1398.7983" x2="1398.7983" y1="382.5107" y2="387.5107"/><line style="stroke:#181818;stroke-width:1;" x1="1398.7983" x2="255.5107" y1="387.5107" y2="387.5107"/><line style="stroke:#181818;stroke-width:1;" x1="255.5107" x2="255.5107" y1="387.5107" y2="402.5107"/><polygon fill="#181818" points="251.5107,392.5107,255.5107,402.5107,259.5107,392.5107,255.5107,396.5107" style="stroke:#181818;stroke-width:1;"/><line style="stroke:#181818;stroke-width:1;" x1="255.5107" x2="255.5107" y1="436.4795" y2="441.4795"/><line style="stroke:#181818;stroke-width:1;" x1="255.5107" x2="1398.7983" y1="441.4795" y2="441.4795"/><line style="stroke:#181818;stroke-width:1;" x1="1398.7983" x2="1398.7983" y1="441.4795" y2="456.4795"/><polygon fill="#181818" points="1394.7983,446.4795,1398.7983,456.4795,1402.7983,446.4795,1398.7983,450.4795" style="stroke:#181818;stroke-width:1;"/><line style="stroke:#181818;stroke-width:1;" x1="1398.7983" x2="1398.7983" y1="490.4482" y2="495.4482"/><line style="stroke:#181818;stroke-width:1;" x1="1398.7983" x2="787.2666" y1="495.4482" y2="495.4482"/><line style="stroke:#181818;stroke-width:1;" x1="787.2666" x2="787.2666" y1="495.4482" y2="510.4482"/><polygon fill="#181818" points="783.2666,500.4482,787.2666,510.4482,791.2666,500.4482,787.2666,504.4482" style="stroke:#181818;stroke-width:1;"/><line style="stroke:#181818;stroke-width:1;" x1="787.2666" x2="787.2666" y1="544.417" y2="549.417"/><line style="stroke:#181818;stroke-width:1;" x1="787.2666" x2="1398.7983" y1="549.417" y2="549.417"/><line style="stroke:#181818;stroke-width:1;" x1="1398.7983" x2="1398.7983" y1="549.417" y2="564.417"/><polygon fill="#181818" points="1394.7983,554.417,1398.7983,564.417,1402.7983,554.417,1398.7983,558.417" style="stroke:#181818;stroke-width:1;"/><line style="stroke:#181818;stroke-width:1;" x1="1398.7983" x2="1398.7983" y1="598.3857" y2="603.3857"/><line style="stroke:#181818;stroke-width:1;" x1="1398.7983" x2="2007.7524" y1="603.3857" y2="603.3857"/><line style="stroke:#181818;stroke-width:1;" x1="2007.7524" x2="2007.7524" y1="603.3857" y2="618.3857"/><polygon fill="#181818" points="2003.7524,608.3857,2007.7524,618.3857,2011.7524,608.3857,2007.7524,612.3857" style="stroke:#181818;stroke-width:1;"/><line style="stroke:#181818;stroke-width:1;" x1="2007.7524" x2="2007.7524" y1="696.3545" y2="708.5557"/><line style="stroke:#181818;stroke-width:1;" x1="2007.7524" x2="1398.7983" y1="708.5557" y2="708.5557"/><line style="stroke:#181818;stroke-width:1;" x1="1398.7983" x2="1398.7983" y1="708.5557" y2="720.7568"/><polygon fill="#181818" points="1394.7983,710.7568,1398.7983,720.7568,1402.7983,710.7568,1398.7983,714.7568" style="stroke:#181818;stroke-width:1;"/><line style="stroke:#181818;stroke-width:1;" x1="2007.7524" x2="2007.7524" y1="925.21" y2="937.4111"/><line style="stroke:#181818;stroke-width:1;" x1="2007.7524" x2="1398.7983" y1="937.4111" y2="937.4111"/><line style="stroke:#181818;stroke-width:1;" x1="1398.7983" x2="1398.7983" y1="937.4111" y2="949.6123"/><polygon fill="#181818" points="1394.7983,939.6123,1398.7983,949.6123,1402.7983,939.6123,1398.7983,943.6123" style="stroke:#181818;stroke-width:1;"/><line style="stroke:#181818;stroke-width:1;" x1="2007.7524" x2="2007.7524" y1="1262.0029" y2="1274.2041"/><line style="stroke:#181818;stroke-width:1;" x1="2007.7524" x2="1398.7983" y1="1274.2041" y2="1274.2041"/><line style="stroke:#181818;stroke-width:1;" x1="1398.7983" x2="1398.7983" y1="1274.2041" y2="1286.4053"/><polygon fill="#181818" points="1394.7983,1276.4053,1398.7983,1286.4053,1402.7983,1276.4053,1398.7983,1280.4053" style="stroke:#181818;stroke-width:1;"/><line style="stroke:#181818;stroke-width:1;" x1="2007.7524" x2="2007.7524" y1="1549.2295" y2="1554.2295"/><line style="stroke:#181818;stroke-width:1;" x1="2007.7524" x2="1398.7983" y1="1554.2295" y2="1554.2295"/><line style="stroke:#181818;stroke-width:1;" x1="1398.7983" x2="1398.7983" y1="1554.2295" y2="1569.2295"/><polygon fill="#181818" points="1394.7983,1559.2295,1398.7983,1569.2295,1402.7983,1559.2295,1398.7983,1563.2295" style="stroke:#181818;stroke-width:1;"/><line style="stroke:#181818;stroke-width:1;" x1="1844.6357" x2="1844.6357" y1="1819.1357" y2="1824.1357"/><line style="stroke:#181818;stroke-width:1;" x1="1844.6357" x2="1235.6816" y1="1824.1357" y2="1824.1357"/><line style="stroke:#181818;stroke-width:1;" x1="1235.6816" x2="1235.6816" y1="1824.1357" y2="1839.1357"/><polygon fill="#181818" points="1231.6816,1829.1357,1235.6816,1839.1357,1239.6816,1829.1357,1235.6816,1833.1357" style="stroke:#181818;stroke-width:1;"/><line style="stroke:#181818;stroke-width:1;" x1="2019.7524" x2="2031.7524" y1="1753.167" y2="1753.167"/><line style="stroke:#181818;stroke-width:1;" x1="2031.7524" x2="2031.7524" y1="1753.167" y2="1771.167"/><line style="stroke:#181818;stroke-width:1;" x1="2031.7524" x2="1561.915" y1="1771.167" y2="1771.167"/><line style="stroke:#181818;stroke-width:1;" x1="1561.915" x2="1561.915" y1="1771.167" y2="1785.167"/><polygon fill="#181818" points="1557.915,1775.167,1561.915,1785.167,1565.915,1775.167,1561.915,1779.167" style="stroke:#181818;stroke-width:1;"/><line style="stroke:#181818;stroke-width:1;" x1="2435.3472" x2="2435.3472" y1="1721.167" y2="1726.167"/><line style="stroke:#181818;stroke-width:1;" x1="2435.3472" x2="2007.7524" y1="1726.167" y2="1726.167"/><line style="stroke:#181818;stroke-width:1;" x1="2007.7524" x2="2007.7524" y1="1726.167" y2="1741.167"/><polygon fill="#181818" points="2003.7524,1731.167,2007.7524,1741.167,2011.7524,1731.167,2007.7524,1735.167" style="stroke:#181818;stroke-width:1;"/><text fill="#000000" font-family="sans-serif" font-size="18" lengthAdjust="spacing" textLength="210.252" x="149.3848" y="29.4531">NotificationPreferences</text><text fill="#000000" font-family="sans-serif" font-size="18" lengthAdjust="spacing" textLength="97.708" x="737.4126" y="29.4531">UserProfile</text><text fill="#000000" font-family="sans-serif" font-size="18" lengthAdjust="spacing" textLength="91.9863" x="1353.752" y="29.4531">LoginView</text><text fill="#000000" font-family="sans-serif" font-size="18" lengthAdjust="spacing" textLength="211.0342" x="1858.5852" y="29.4531">AuthenticationManager</text><text fill="#000000" font-family="sans-serif" font-size="18" lengthAdjust="spacing" textLength="190.3535" x="2339.1704" y="29.4531">UserStorageManager</text><!--SRC=[bLHRRzem57xdLnprAKYeprDuOZJJq3gA4jX5rOISv0Iy6PlP3YqIFtx7BYb9cm3ZXTW-_ivtiNsOAiiBdZ7BbPnfB52ZpD0SUeU5GJtJgk02QNIlLbn-u_Xqw1dBjEs5CMR8TmWQLznOxH4WBQsblqpmxC-m5sfakSEHR8DpVBQfUWxwn_aPC-P9wVpjVBHXNBoTxA3fryTKO14wIa2blp6pmzwXKshOXLve_5lIvpvie7-gfWV0JIHPAZ0F8LLA49swKnMrcfKdEWr_mzeeA8-EXK2-ShaQ03fFJaFPpZViye1eDNczP8RQTVNjZgt3EjK1R8yHLPqzpgYqQvJssEKhaso5cZ1tJF2Sr5PvlvD1kta1GH_SVWWUkVHReAhxrM-G1Fg5EJTRmVQHrae7DnKqR4fZtJvGKkn1e2KjveOQk4t6gcqF1Qq6Z-yweCnvSOMAwdG6BHwqggZgBgkee5zKf0ZCaWH6tnyWMpFDCgS6X9AhRacrTfSahPbPdvCJ4hf6S6NuUYk79olyXGmQHx3B15zqsO59lHnOdciqP-AhK2y9BRZqhyt7_TLdqAr3eKhfS-i0zWfYjAMM4DTUkyGoMvhRHHB5oz5z78tkVYwZ7vDadWolFibCkETj3_XCiAqUU8fqurzfLZOuZ8IY8v8d3mpR-HiuLtVCifGPF7E_cv7NFEfoek6TQmMcpEY1CKNf0hfWLB8OZwEapHogauQxqhdwh3RebZfvjtZagPJoVyWifb-c3z-dooYE7-ABUTK1eA3ZYFajJAHrAGf0LzJCpcNq3m00]--></g></svg>